Coordinates
version=1
nRows=17
nColumns=33
inDegrees=yes

Units are S.I. units (second, meters, Newtons, ...)
Angles are in degrees.

endheader
time	ground_thorax_rot_x	ground_thorax_rot_y	ground_thorax_rot_z	ground_thorax_tx	ground_thorax_ty	ground_thorax_tz	clav_prot_r	clav_elev_r	scapula_abduction_r	scapula_elevation_r	scapula_upward_rot_r	scapula_winging_r	shoulder_elv_r	plane_of_elev_r	axial_rot_r	elbow_flexion_r	pro_sup_r	wrist_flex_r	wrist_dev_r	clav_prot_l	clav_elev_l	scapula_abduction_l	scapula_elevation_l	scapula_upward_rot_l	scapula_winging_l	shoulder_elv_l	plane_of_elev_l	axial_rot_l	elbow_flexion_l	pro_sup_l	wrist_flex_l	wrist_dev_l
      4.09000000	    -40.54424302	     -7.85463858	      7.88428752	   -206.29088297	    874.38297308	     -3.99091560	      4.11642662	    -45.00000000	     38.24721203	    -45.00000000	     -7.78933728	   2409.83167732	   -648.84850912	     22.54949093	   -179.99999979	   1804.88083358	    -76.20906162	     21.66753472	     10.78848860	     15.35100675	     38.34165813	    -37.21561514	    -45.00000000	    -45.00000000	   -274.10379181	  -2447.76859196	     19.40384070	    -47.13786012	    732.37132277	     44.91986465	      6.99081725	    -23.15127013
      4.10000000	    -40.56657921	     -7.61643722	      7.69887849	   -204.72612664	    875.88947367	     -3.93210334	      4.09107759	    -45.00000000	     38.34403014	    -45.00000000	     -7.21013836	   2409.96478008	   -648.83978345	     22.62499127	   -179.99999979	   1804.73573006	    -75.33817383	     21.91582762	     10.72761763	     15.20791711	     38.24853006	    -37.52721403	    -45.00000000	    -45.00000000	   -273.95962461	  -2447.60064856	     19.52492835	    -46.55616659	    732.60462354	     45.82286545	      6.83270940	    -23.20987666
      4.11000000	    -40.52880265	     -7.45856931	      7.55681837	   -203.10460181	    877.49414621	     -3.87900368	      3.98138546	    -45.00000000	     38.63607933	    -45.00000000	     -6.07797972	   2409.96486767	   -648.68709773	     22.67729574	   -179.99999979	   1804.67807342	    -74.48515602	     22.04575788	     10.71939896	     15.35353088	     38.29673260	    -37.74852084	    -45.00000000	    -45.00000000	   -273.85614574	  -2447.49814154	     19.71254017	    -46.12670847	    732.67201859	     46.75137176	      6.62786722	    -23.18537826
      4.12000000	    -40.53256097	     -7.23048717	      7.40879426	   -201.41895958	    879.19869911	     -3.82678231	      3.83812422	    -45.00000000	     38.85117652	    -45.00000000	     -5.27358809	   2410.04753085	   -648.57276873	     22.73650006	   -179.99999979	   1804.55070511	    -73.79286472	     22.25078708	     10.67794599	     15.37328362	     38.29634353	    -38.04454201	    -45.00000000	    -45.00000000	   -273.71627148	  -2447.33793751	     19.85375597	    -45.54744785	    732.82183437	     47.54959693	      6.46274783	    -23.20606625
      4.13000000	    -40.50447380	     -7.01627030	      7.24122608	   -199.66400044	    880.99853860	     -3.77246205	      3.75863862	    -45.00000000	     39.20968689	    -45.00000000	     -4.06180758	   2410.07985500	   -648.35715910	     22.76931592	   -179.99999979	   1804.51348887	    -73.17501708	     22.35715797	     10.69549247	     15.45256138	     38.34668587	    -38.28176476	    -45.00000000	    -45.00000000	   -273.61178737	  -2447.19159660	     20.04730712	    -44.98507047	    732.88777273	     48.31629112	      6.27664587	    -23.18151315
      4.14000000	    -40.49598329	     -6.73347456	      7.08181278	   -197.83299860	    882.88538346	     -3.71542620	      3.67019550	    -45.00000000	     39.44596076	    -45.00000000	     -3.06633256	   2410.15512021	   -648.20514964	     22.81167681	   -179.99999979	   1804.39028274	    -72.71301447	     22.53560178	     10.67802099	     15.42152049	     38.33016072	    -38.59733660	    -45.00000000	    -45.00000000	   -273.47491537	  -2447.02420629	     20.27068289	    -44.28565144	    733.03552229	     48.95690053	      6.11285218	    -23.18406535
      4.15000000	    -40.52182262	     -6.50461291	      6.89155335	   -195.92364976	    884.84035534	     -3.65745544	      3.55069720	    -45.00000000	     39.68384548	    -45.00000000	     -1.98411710	   2410.25354633	   -648.06881130	     22.85930716	   -179.99999979	   1804.26830862	    -72.41362815	     22.69742729	     10.67728577	     15.45381565	     38.33129499	    -38.90268117	    -45.00000000	    -45.00000000	   -273.31497728	  -2446.83029645	     20.43157188	    -43.57109035	    733.16573696	     49.51506951	      5.95588132	    -23.18267225
      4.16000000	    -40.50397414	     -6.26986737	      6.73494871	   -193.93059705	    886.84091346	     -3.60133932	      3.45654795	    -45.00000000	     40.05299310	    -45.00000000	     -0.68381311	   2410.28554889	   -647.79508052	     22.89734118	   -179.99999979	   1804.23583249	    -72.21757383	     22.78080479	     10.73274994	     15.52571150	     38.37923709	    -39.17442289	    -45.00000000	    -45.00000000	   -273.20541895	  -2446.68069184	     20.69777701	    -42.81644504	    733.18626037	     50.01557460	      5.79157518	    -23.12297255
      4.17000000	    -40.48990435	     -6.10086740	      6.58464561	   -191.85175456	    888.85470982	     -3.55007239	      3.31269730	    -45.00000000	     40.40059788	    -45.00000000	      0.75230841	   2410.33818411	   -647.55568014	     22.91404095	   -179.99999979	   1804.13986099	    -72.16745985	     22.82898964	     10.79237621	     15.64534292	     38.45285758	    -39.41501565	    -45.00000000	    -45.00000000	   -273.09137608	  -2446.54228396	     20.88505237	    -42.03196705	    733.20669066	     50.43589721	      5.62953860	    -23.06257371
      4.18000000	    -40.55137886	     -5.76812594	      6.45872977	   -189.68012331	    890.84884234	     -3.50500425	      3.25313813	    -45.00000000	     40.34744342	    -45.00000000	      1.29459446	   2410.62601029	   -647.52326566	     22.90714455	   -179.99999979	   1803.84976662	    -72.29967083	     23.10813431	     10.75736039	     15.28840596	     38.23183007	    -39.86274557	    -45.00000000	    -45.00000000	   -272.87562227	  -2446.24508278	     21.07418819	    -40.97624557	    733.51442095	     50.66631656	      5.48338980	    -23.08702711
      4.19000000	    -40.49337194	     -5.57647887	      6.23079142	   -187.41018373	    892.78542058	     -3.46563746	      3.08954253	    -45.00000000	     40.71631472	    -45.00000000	      2.71652167	   2410.77253419	   -647.20272609	     22.98923312	   -179.99999979	   1803.86274018	    -72.56396495	     23.13382289	     10.89213445	     15.44974101	     38.28856062	    -40.08536858	    -45.00000000	    -45.00000000	   -272.85245279	  -2446.14373448	     21.32398024	    -40.11536544	    733.37714961	     50.85646356	      5.39204258	    -23.00637581
      4.20000000	    -40.50315676	     -5.40711567	      6.08511658	   -185.04035802	    894.62178331	     -3.42883296	      2.94545350	    -45.00000000	     41.42321791	    -45.00000000	      4.72841481	   2410.55357874	   -646.86723168	     23.00576376	   -179.99999979	   1803.91911624	    -73.00347887	     23.02665937	     11.07515618	     15.82103264	     38.54919333	    -40.42783478	    -45.00000000	    -45.00000000	   -272.59441064	  -2446.08639561	     21.64716811	    -39.31739730	    733.28658473	     50.93218669	      5.25150221	    -22.87812545
      4.21000000	    -40.52870401	     -5.23699825	      6.00014056	   -182.56511906	    896.31898223	     -3.38917234	      2.82237994	    -45.00000000	     41.50201853	    -45.00000000	      5.72433346	   2410.88999904	   -646.65034596	     22.95768740	   -179.99999979	   1803.83383906	    -73.55682498	     23.12160988	     11.18721456	     15.53730353	     38.52618249	    -40.64445365	    -45.00000000	    -45.00000000	   -272.56260204	  -2445.79459045	     21.89057742	    -38.40224592	    733.30861153	     50.85454290	      5.15416968	    -22.80833561
      4.22000000	    -40.55771215	     -5.03993805	      5.75676396	   -179.98214299	    897.83658643	     -3.33946495	      2.58171586	    -45.00000000	     42.07102409	    -45.00000000	      7.78280245	   2410.81607410	   -646.37720109	     22.92573917	   -179.99999979	   1803.82594975	    -74.42259918	     22.96275056	     11.40672070	     15.96645786	     38.74802434	    -40.97124140	    -45.00000000	    -44.74404455	   -272.37181539	  -2445.76592173	     22.06379657	    -37.56134171	    733.27199932	     50.58980121	      5.04376132	    -22.71337432
      4.23000000	    -40.58473619	     -4.67640553	      5.45404995	   -177.29098054	    899.13464882	     -3.27174984	      2.30438360	    -45.00000000	     42.42638434	    -45.00000000	      9.79786105	   2410.89468322	   -646.02788430	     22.82093926	   -179.99999979	   1803.76369780	    -75.61643082	     22.81194994	     11.65272272	     16.10785092	     38.91211493	    -41.21666725	    -45.00000000	    -44.10936213	   -272.40872074	  -2445.63404883	     22.08781764	    -36.71487498	    733.31264864	     50.05059885	      5.01156394	    -22.70844335
      4.24000000	    -40.64353474	     -4.47366960	      5.26263913	   -174.49393116	    900.17521188	     -3.17797418	      2.42252947	    -45.00000000	     42.40362568	    -45.00000000	      9.95509419	   2411.14666513	   -646.27445725	     23.10046425	   -179.99999979	   1803.59453702	    -76.60937167	     23.16392741	     11.69183358	     15.36648829	     38.92633773	    -41.36876817	    -45.00000000	    -43.30641919	   -272.24531179	  -2445.64812483	     22.27678337	    -36.20098597	    733.19779035	     49.55246527	      5.20956884	    -22.78374800
      4.25000000	    -40.75859042	     -4.23322236	      5.08894577	   -171.59020327	    900.92423441	     -3.05129495	      1.93382424	    -45.00000000	     43.07035788	    -45.00000000	     12.63429852	   2411.01018819	   -645.81210354	     22.81269982	   -179.99999979	   1803.65340727	    -78.23134866	     22.69797910	     12.05497888	     16.10593755	     39.29261149	    -41.69988089	    -45.00000000	    -42.66821953	   -272.18027396	  -2445.60261626	     22.28479197	    -35.57414696	    733.08752722	     48.46597377	      5.11043514	    -22.64100851
